<?xml version="1.0" encoding="UTF-8" standalone="no"?>
<!-- Uploaded to: SVG Repo, www.svgrepo.com, Generator: SVG Repo Mixer Tools -->

<svg
   fill="#000000"
   height="16"
   width="16"
   version="1.1"
   id="Capa_1"
   viewBox="0 0 4.4504201 4.4504198"
   xml:space="preserve"
   sodipodi:docname="sequelaoscar.svg"
   inkscape:version="1.2.2 (b0a8486541, 2022-12-01)"
   xmlns:inkscape="http://www.inkscape.org/namespaces/inkscape"
   xmlns:sodipodi="http://sodipodi.sourceforge.net/DTD/sodipodi-0.dtd"
   xmlns="http://www.w3.org/2000/svg"
   xmlns:svg="http://www.w3.org/2000/svg"><defs
   id="defs7" /><sodipodi:namedview
   id="namedview5"
   pagecolor="#ffffff"
   bordercolor="#000000"
   borderopacity="0.25"
   inkscape:showpageshadow="2"
   inkscape:pageopacity="0.0"
   inkscape:pagecheckerboard="0"
   inkscape:deskcolor="#d1d1d1"
   showgrid="false"
   inkscape:zoom="21.015213"
   inkscape:cx="-0.97548379"
   inkscape:cy="14.227788"
   inkscape:window-width="1920"
   inkscape:window-height="1011"
   inkscape:window-x="0"
   inkscape:window-y="0"
   inkscape:window-maximized="1"
   inkscape:current-layer="Capa_1" />

<g
   id="g948"
   transform="translate(-0.11446786,0.01162535)"><path
     id="path2"
     d="m 1.4220554,2.9150533 c -0.017604,0.00787 -0.029925,0.025459 -0.029925,0.045977 v 0.198481 h -0.074054 c -0.027833,0 -0.050414,0.022595 -0.050414,0.050429 0,0.027834 0.022583,0.050414 0.050414,0.050414 h 0.023227 v 0.7251565 c -6.68e-4,2.269e-4 -0.00131,5.162e-4 -0.00194,7.592e-4 L 1.0407205,4.1102816 c -0.0034,0.00131 -0.00661,0.00301 -0.00962,0.00499 -2.53e-5,0 -4.04e-5,2.56e-5 -4.04e-5,2.56e-5 -0.00463,0.00308 -0.00867,0.00688 -0.011988,0.011168 -0.00527,0.0068 -0.00882,0.015034 -0.010028,0.023982 -3.34e-4,0.00246 -4.857e-4,0.00495 -4.554e-4,0.0075 v 0.2304334 c 0,0.027834 0.022584,0.050414 0.050415,0.050414 h 2.102978 c 0.027834,0 0.05042,-0.022563 0.05047,-0.05047 V 4.157901 c 5.04e-5,-0.00262 -1.261e-4,-0.00518 -4.859e-4,-0.00773 -0.00124,-0.00882 -0.00474,-0.016886 -0.00992,-0.02364 -0.00333,-0.00438 -0.00743,-0.00823 -0.01213,-0.011347 -0.00301,-0.00201 -0.0062,-0.00367 -0.0096,-0.00499 L 2.8816714,3.9861822 c -6.377e-4,-2.521e-4 -0.00128,-5.162e-4 -0.00194,-7.59e-4 v -0.725143 h 0.023242 c 0.027834,0 0.050429,-0.022595 0.050429,-0.050429 0,-0.027834 -0.022595,-0.050414 -0.050429,-0.050414 H 2.8289413 V 2.9609565 c 0,-0.020465 -0.012255,-0.038008 -0.029788,-0.04591 z m 0.070917,0.096377 h 1.235096 V 3.1594834 H 1.4929725 Z m -0.050812,0.248896 H 2.7784698 L 2.7788645,3.982388 H 1.4421609 Z M 1.3687781,4.083217 h 1.4834851 l 0.056852,0.023625 H 1.3119267 Z M 1.1094463,4.2076844 H 3.1115538 V 4.3379462 H 1.1094463 Z"
     style="fill:#ffb338;fill-opacity:1;stroke:none;stroke-width:0.0252104;stroke-opacity:1" /><path
     id="rect2839"
     style="fill:none;fill-opacity:1;stroke:#ffb338;stroke-width:0.0893999;stroke-dasharray:none;stroke-opacity:1"
     d="m 3.1110239,0.16818726 v 2.53e-5 C 3.0458217,0.1686983 2.976455,0.19520185 2.9079241,0.24852849 2.8521198,0.29195324 2.7484608,0.37320433 2.6775843,0.42907867 2.5387216,0.53854988 2.2033179,1.0284341 2.2033179,1.1217929 c 0,0.031303 -0.021032,0.080941 -0.046757,0.1102638 -0.05464,0.062285 -0.2316096,0.5565616 -0.2316096,0.6469127 0,0.033957 -0.022687,0.1242875 -0.050446,0.2007129 -0.054163,0.1491197 -0.1002006,0.3632836 -0.1259466,0.5860156 -0.0088,0.076151 -0.028367,0.1490307 -0.043498,0.1618752 -0.01151,0.00978 -0.021415,0.067352 -0.025513,0.1399945 h 0.7992971 l 0.00876,-0.4495993 c 0.00769,-0.3954124 0.028844,-0.750712 0.047541,-0.7978355 0.018542,-0.046729 0.052466,-0.1423171 0.075389,-0.2124095 0.095265,-0.2913044 0.2215037,-0.53079324 0.3231252,-0.61314245 0.087259,-0.0707133 0.1555785,-0.0864648 0.3528495,-0.081317 0.2575386,0.006733 0.3395613,-0.0366988 0.3395613,-0.17962697 0,-0.0464867 -0.041774,-0.10499318 -0.1038425,-0.14544505 C 3.4651201,0.45097737 3.3789905,0.36405964 3.3308483,0.295046 3.2717243,0.210285 3.194854,0.16762475 3.1110235,0.16818495 Z" /></g></svg>
